<?xml version="1.0" standalone="no"?>
<!DOCTYPE svg PUBLIC "-//W3C//DTD SVG 20010904//EN"
 "http://www.w3.org/TR/2001/REC-SVG-20010904/DTD/svg10.dtd">
<svg version="1.0" xmlns="http://www.w3.org/2000/svg"
 width="2048.000000pt" height="2048.000000pt" viewBox="0 0 2048.000000 2048.000000"
 preserveAspectRatio="xMidYMid meet">

<g transform="translate(0.000000,2048.000000) scale(0.100000,-0.100000)"
fill="#000000" stroke="none">
<path d="M9945 18449 c-1024 -72 -1982 -508 -2710 -1234 -631 -629 -1052
-1441 -1194 -2305 -55 -332 -54 -295 -58 -1617 l-4 -1233 2130 0 2131 0 0 795
0 795 -1330 0 -1330 0 0 353 c0 394 8 504 51 721 80 400 278 824 535 1146 88
109 295 316 404 404 276 221 627 400 970 494 186 52 461 92 626 92 l74 0 0
800 0 800 -92 -1 c-51 -1 -142 -5 -203 -10z"/>
<path d="M10242 10723 l3 -798 1328 -3 1327 -2 0 -363 c0 -255 -4 -399 -15
-488 -103 -879 -635 -1650 -1419 -2055 -356 -184 -689 -273 -1118 -299 l-108
-7 0 -796 0 -795 183 6 c743 24 1495 265 2139 683 268 174 498 364 733 605
596 611 995 1388 1140 2219 60 350 58 287 62 1643 l4 1247 -2131 0 -2130 0 2
-797z"/>
<path d="M13380 2800 l0 -760 120 0 120 0 0 96 0 96 40 -50 c83 -106 191 -155
340 -155 150 1 259 49 360 160 101 111 145 232 144 403 0 99 -4 126 -28 195
-35 103 -104 205 -175 261 -182 143 -456 118 -598 -55 l-43 -52 0 311 0 310
-140 0 -140 0 0 -760z m676 76 c104 -49 164 -157 164 -299 0 -67 -5 -92 -26
-137 -68 -147 -223 -214 -368 -160 -63 24 -128 76 -152 121 -21 41 -20 289 2
331 27 52 97 120 149 144 69 33 161 33 231 0z"/>
<path d="M8321 3515 c-200 -44 -342 -183 -372 -365 -22 -135 10 -249 92 -325
65 -61 158 -103 364 -165 290 -88 335 -117 335 -215 0 -46 -5 -60 -30 -89 -44
-49 -86 -61 -215 -60 -92 1 -124 5 -195 29 -83 27 -204 83 -265 124 l-31 20
-61 -123 -61 -123 53 -32 c191 -116 453 -176 661 -151 171 20 273 67 358 162
66 72 89 141 90 263 1 136 -19 191 -93 266 -76 76 -165 117 -389 178 -273 76
-322 107 -322 206 0 64 28 109 85 139 50 26 175 34 254 16 79 -18 196 -65 249
-102 25 -17 47 -27 49 -22 2 5 30 56 62 114 68 121 72 109 -49 169 -184 93
-391 124 -569 86z"/>
<path d="M5980 3395 l0 -125 235 0 235 0 2 -612 3 -613 140 0 140 0 3 613 2
612 235 0 235 0 0 125 0 125 -615 0 -615 0 0 -125z"/>
<path d="M7392 2783 l3 -738 143 -3 142 -3 0 741 0 740 -145 0 -145 0 2 -737z"/>
<path d="M9140 3395 l0 -125 235 0 235 0 2 -612 3 -613 143 -3 142 -3 0 616 0
615 235 0 235 0 0 125 0 125 -615 0 -615 0 0 -125z"/>
<path d="M10992 2783 l3 -738 518 -3 517 -2 0 125 0 125 -375 0 -375 0 0 615
0 615 -145 0 -145 0 2 -737z"/>
<path d="M12498 3130 c-83 -15 -160 -41 -239 -81 -43 -21 -80 -43 -84 -48 -4
-8 64 -161 80 -179 1 -1 29 13 62 33 83 50 165 76 253 82 171 12 270 -65 270
-208 l0 -57 -52 15 c-82 23 -269 28 -355 10 -141 -30 -252 -107 -295 -204 -45
-103 -31 -239 35 -325 129 -168 392 -193 597 -57 32 22 70 54 84 70 25 30 25
30 30 7 3 -13 7 -35 11 -50 9 -46 67 -96 121 -104 47 -7 145 0 164 11 6 4 10
52 10 116 0 90 -3 109 -15 109 -8 0 -24 9 -35 20 -19 19 -20 33 -20 238 0 288
-15 358 -96 458 -43 53 -118 101 -197 126 -70 22 -253 32 -329 18z m272 -598
l65 -17 3 -65 c2 -56 -1 -71 -23 -105 -85 -131 -345 -158 -415 -43 -59 98 -10
201 111 237 53 15 188 11 259 -7z"/>
</g>
</svg>
